<svg width="40" height="40" viewBox="0 0 40 40" fill="none" 
  xmlns="http://www.w3.org/2000/svg">
  <path d="M14.9791 12.3854C12.5107 12.3854 10.5026 14.3936 10.5026 16.8619C10.5026 19.3303 12.5108 21.3385 14.9791 21.3385C17.4475 21.3385 19.4557 19.3303 19.4557 16.8619C19.4557 14.3936 17.4476 12.3854 14.9791 12.3854ZM16.8619 18.0338C16.2151 18.0338 15.6901 17.5087 15.6901 16.8619C15.6901 16.2151 16.2151 15.6901 16.8619 15.6901C17.5087 15.6901 18.0338 16.2151 18.0338 16.8619C18.0338 17.5087 17.5087 18.0338 16.8619 18.0338Z" fill="#82CCC8"/>
  <path d="M31.2135 12.3854C28.7451 12.3854 26.7369 14.3936 26.7369 16.8619C26.7369 19.3303 28.7451 21.3385 31.2135 21.3385C33.6819 21.3385 35.6901 19.3303 35.6901 16.8619C35.6901 14.3936 33.6819 12.3854 31.2135 12.3854ZM33.0963 18.0338C32.4495 18.0338 31.9244 17.5087 31.9244 16.8619C31.9244 16.2151 32.4495 15.6901 33.0963 15.6901C33.7431 15.6901 34.2682 16.2151 34.2682 16.8619C34.2682 17.5087 33.7431 18.0338 33.0963 18.0338Z" fill="#82CCC8"/>
  <path d="M31.2135 23.6823C27.4528 23.6823 24.3932 20.6227 24.3932 16.862C24.3932 13.1012 27.4528 10.0416 31.2135 10.0416C33.189 10.0416 34.9706 10.8862 36.2174 12.2327C34.2028 5.17211 27.6974 0 20 0C10.6895 0 3.13806 7.56117 3.13806 16.862V35.6901C3.13806 38.0666 5.0715 40 7.44798 40C9.82447 40 11.7579 38.0666 11.7579 35.6901C11.7579 34.6059 12.6399 33.7239 13.7241 33.7239C14.8082 33.7239 15.6902 34.6059 15.6902 35.6901C15.6901 38.0666 17.6235 40 20 40C22.3765 40 24.3099 38.0666 24.3099 35.6901C24.3099 34.6059 25.192 33.7239 26.2761 33.7239C27.3602 33.7239 28.2423 34.6059 28.2423 35.6901C28.2423 38.0666 30.1757 40 32.5522 40C34.9287 40 36.8621 38.0666 36.8621 35.6901V20.6805C35.6344 22.4905 33.5606 23.6823 31.2135 23.6823ZM14.9792 23.6823C11.2184 23.6823 8.15884 20.6227 8.15884 16.862C8.15884 13.1012 11.2185 10.0416 14.9792 10.0416C18.7399 10.0416 21.7995 13.1012 21.7995 16.862C21.7995 20.6227 18.7399 23.6823 14.9792 23.6823Z" fill="#82CCC8"/>
</svg>
